<svg version="1.1" id="Layer_1" xmlns="http://www.w3.org/2000/svg" xmlns:xlink="http://www.w3.org/1999/xlink" x="0px" y="0px"
	 width="100%" viewBox="0 0 1024 768" enable-background="new 0 0 1024 768" xml:space="preserve">
<path fill="#000000" opacity="1.000000" stroke="none" 
	d="
M494.350189,298.269012 
	C498.256409,304.278351 503.996124,308.800720 507.784546,314.922302 
	C509.758759,318.112335 512.017090,321.126587 514.533630,324.781586 
	C519.368469,317.658386 523.688660,310.980957 528.989136,305.013489 
	C541.374329,291.069611 556.101807,280.561127 573.417847,273.585632 
	C576.977478,272.151703 578.692078,272.846313 580.371643,276.318329 
	C595.377258,307.336975 610.550110,338.274689 625.653931,369.245880 
	C626.004028,369.963684 626.123718,370.793854 626.326843,371.489166 
	C624.835876,373.360474 622.886230,372.973145 621.120300,372.976562 
	C605.794373,373.006165 590.467529,372.891693 575.143066,373.042053 
	C571.269897,373.080078 569.083801,371.684753 567.475464,368.148254 
	C563.617004,359.663971 559.528381,351.275635 555.241028,342.999664 
	C553.673950,339.974731 554.264099,337.883301 556.114685,335.320251 
	C562.783203,326.084198 570.759521,318.159515 579.553955,310.973450 
	C567.393677,316.497314 557.612366,324.852844 549.687073,335.574524 
	C542.457214,345.355377 537.308960,356.095520 534.548767,367.892609 
	C533.650391,371.732391 531.919434,373.107330 528.077087,373.026184 
	C519.085388,372.836182 510.083496,372.813019 501.092957,373.027008 
	C497.018616,373.123993 495.212494,371.565125 494.242523,367.613007 
	C489.747650,349.299103 480.347900,333.930054 466.063080,321.518066 
	C461.032715,317.147217 455.278198,314.066650 449.464722,310.939453 
	C458.354218,318.492767 466.576202,326.592407 473.233185,336.204987 
	C474.585602,338.157837 475.352661,339.722412 474.178864,342.072906 
	C469.641632,351.158508 465.223724,360.304199 460.828583,369.459808 
	C459.797577,371.607452 458.429382,372.935089 455.895752,372.931854 
	C439.071320,372.910309 422.246796,372.942322 405.422394,372.911682 
	C404.643860,372.910248 403.866150,372.476349 403.276123,372.300079 
	C402.310669,370.895386 402.969971,369.869202 403.477264,368.828949 
	C418.584076,337.853149 433.717041,306.890015 448.758301,275.882385 
	C450.240326,272.827087 451.882965,272.305389 455.055695,273.542572 
	C466.489410,278.001007 476.857849,284.189453 486.392761,291.855225 
	C487.683716,292.893097 489.056183,293.829498 490.938354,295.159363 
	C492.440643,296.426849 493.395416,297.347931 494.350189,298.269012 
z"/>
<path fill="#000000" opacity="1.000000" stroke="none" 
	d="
M494.655609,298.125244 
	C493.395416,297.347931 492.440643,296.426849 491.265167,295.267517 
	C481.338654,284.588226 470.455933,275.578033 457.943268,268.722290 
	C454.416351,266.789886 454.051361,264.852478 455.682526,261.557861 
	C470.389862,231.851868 485.050018,202.122437 499.654266,172.365677 
	C500.898071,169.831390 502.437225,168.543549 505.400543,168.629837 
	C511.394745,168.804382 517.400452,168.785980 523.395874,168.632156 
	C526.282227,168.558105 528.003296,169.644058 529.260803,172.229095 
	C543.832458,202.184570 558.471252,232.107407 573.092346,262.038849 
	C574.190491,264.286835 574.870544,266.343567 571.966003,267.946411 
	C558.562622,275.342987 547.028320,285.092346 536.598083,296.223083 
	C535.950317,296.914368 535.000671,297.322784 533.422119,298.376129 
	C527.308960,285.880280 521.327820,273.654266 514.914307,260.544403 
	C510.709625,265.720276 508.929810,270.738525 506.609497,275.433472 
	C502.860504,283.019196 499.837921,290.978577 494.655609,298.125244 
z"/>
<path fill="#000000" opacity="1.000000" stroke="none" 
	d="
M769.694641,540.701782 
	C779.106079,534.198181 777.472290,524.708679 777.562256,515.261230 
	C774.505981,516.207764 772.643127,518.425903 770.355713,519.920166 
	C757.074829,528.596313 751.585876,527.219116 744.547241,513.086975 
	C741.167480,514.904785 738.420166,517.469849 735.737244,520.106445 
	C731.676941,524.096436 727.330627,527.705994 722.212097,530.273315 
	C714.968140,533.906738 709.383057,531.186951 707.948669,523.081299 
	C707.224304,518.987915 707.229675,514.804077 708.483276,510.708740 
	C708.909729,509.315430 709.822937,507.977936 709.284241,505.975983 
	C704.737305,506.130463 700.677551,508.768799 696.269470,509.215515 
	C687.905151,510.063232 683.955688,515.684143 680.053040,522.078125 
	C676.709839,527.555664 671.490601,529.532593 666.960999,528.123047 
	C662.660950,526.784912 659.619507,521.766235 659.489014,515.649841 
	C659.421082,512.464478 659.707458,509.301636 661.114258,506.379425 
	C663.171875,502.105164 665.585754,498.124359 666.600708,493.250031 
	C667.605286,488.425476 673.603394,486.130219 679.381836,487.130920 
	C686.231201,488.317108 690.949890,493.012390 691.222107,498.769836 
	C691.291138,500.230591 690.364563,501.682037 691.360535,503.500549 
	C698.298767,502.116455 705.000244,499.841217 711.536255,497.017731 
	C713.918884,495.988525 713.759827,493.482544 714.675110,491.599670 
	C715.623901,489.647888 716.499817,487.236725 719.287964,488.159576 
	C721.743286,488.972260 722.839661,490.985992 722.372620,493.721100 
	C721.498535,498.839996 719.800720,503.697021 717.998901,508.544708 
	C716.338928,513.010498 714.218811,517.392029 714.211792,523.489746 
	C718.988525,521.170593 722.879395,518.879639 726.377319,515.961243 
	C731.620605,511.586731 736.704773,507.020935 741.966309,502.669159 
	C743.499146,501.401337 744.990662,498.987488 747.506897,500.734650 
	C749.915771,502.407288 752.787903,503.935852 752.232422,507.694519 
	C752.208191,507.858337 752.213440,508.027161 752.212646,508.193695 
	C752.173828,516.587524 754.999084,518.377686 762.195190,513.628662 
	C770.545593,508.117889 779.711731,503.465424 783.989197,493.228943 
	C786.094238,488.191437 789.533020,487.712616 793.127502,490.473663 
	C796.449707,493.025574 796.345703,495.192322 792.855286,497.570984 
	C792.050659,498.119354 791.133911,498.755402 790.714661,499.578308 
	C786.325134,508.192871 784.171326,517.221985 785.619324,526.748718 
	C787.076599,527.529236 787.921204,526.836731 788.691162,526.270020 
	C800.336182,517.699280 812.682556,510.104797 823.899902,500.935211 
	C826.006653,499.213135 827.913940,497.479279 828.603394,494.702026 
	C828.971130,493.220612 829.611694,491.662537 831.541077,491.932312 
	C833.388855,492.190613 835.226868,492.865143 835.625610,495.021210 
	C836.076233,497.458099 836.296204,499.937653 836.631287,502.512634 
	C838.751526,502.715027 839.140991,500.716370 840.162048,499.616516 
	C845.479919,493.888336 850.339172,487.570526 858.317139,485.246643 
	C862.743164,483.957428 867.140625,483.294983 870.902344,487.945709 
	C863.847656,491.268646 857.341431,495.112152 852.346252,500.871246 
	C845.448608,508.823761 839.498596,517.441833 835.495605,527.263794 
	C834.262207,530.290100 832.883179,533.619873 829.094177,533.205688 
	C825.502136,532.812988 824.349426,529.519348 823.635010,526.267090 
	C822.567078,521.405212 824.046082,516.690918 824.291199,511.276672 
	C812.648682,519.632874 801.319763,527.814636 789.929382,535.909973 
	C786.244324,538.528992 785.806396,541.977722 786.596924,546.046814 
	C787.483765,550.612366 788.294617,555.204773 788.849609,559.820251 
	C789.992188,569.323120 783.837769,579.049744 774.876160,582.219849 
	C769.299744,584.192627 765.470642,583.470886 761.986816,578.821167 
	C756.676758,571.734192 753.314331,563.440979 759.126770,554.396179 
	C762.205566,549.605225 765.451965,545.013367 769.694641,540.701782 
M781.239014,550.331116 
	C780.617737,548.907959 781.479431,546.939148 779.689087,545.927185 
	C773.574097,550.249451 768.298584,556.961914 766.056641,563.848877 
	C765.175598,566.555115 763.029358,570.151550 765.517700,572.171570 
	C768.340210,574.462891 771.839783,572.100952 774.681274,570.416870 
	C777.185303,568.932739 778.851685,566.605957 779.679016,563.812317 
	C780.904053,559.675903 781.928650,555.490173 781.239014,550.331116 
M674.598083,498.192932 
	C674.055847,500.192688 673.513672,502.192444 672.963867,504.220367 
	C675.551453,505.380188 678.080322,506.614868 680.222168,504.737152 
	C682.744141,502.526245 683.005676,499.228363 682.779602,496.011139 
	C682.695129,494.810303 682.231140,493.463989 680.830994,493.557465 
	C678.184082,493.734100 676.338318,495.398804 674.598083,498.192932 
M666.232666,514.676514 
	C665.783447,516.885559 664.183594,519.671265 666.861084,520.990540 
	C669.213684,522.149780 671.145996,519.754028 672.716370,518.119995 
	C674.277527,516.495422 676.042969,514.820679 675.908875,511.975159 
	C673.503418,511.064850 671.531738,509.168945 668.549133,508.789124 
	C667.793152,510.608765 667.097778,512.282715 666.232666,514.676514 
z"/>
<path fill="#000000" opacity="1.000000" stroke="none" 
	d="
M393.747314,492.658234 
	C396.576782,490.458618 399.312500,488.843567 402.623444,488.793243 
	C409.808868,488.684052 413.484711,492.850250 413.220062,500.656433 
	C419.445312,502.171173 420.885651,504.512421 419.735352,510.792603 
	C419.143616,514.023193 418.839020,517.306396 418.354828,520.939636 
	C424.526154,521.585999 429.312103,518.624939 433.726196,515.716187 
	C441.443634,510.630676 449.455292,505.726624 452.254425,495.727264 
	C453.497070,491.288208 458.539124,491.966827 462.280304,497.052490 
	C463.760681,494.965240 465.102692,492.887329 466.631683,490.957550 
	C469.467560,487.378632 472.824066,484.789185 477.759277,486.476105 
	C482.493042,488.094208 485.209290,492.393066 485.196014,497.700470 
	C485.188751,500.604309 484.034576,503.222992 483.405151,505.970215 
	C482.320221,510.705566 482.861328,515.399414 484.498871,520.655457 
	C478.676239,520.331299 477.263245,516.817993 476.820282,513.042664 
	C476.298492,508.595367 476.433502,504.082275 477.417572,499.625061 
	C477.831604,497.749725 478.008362,495.742920 477.227509,493.491180 
	C470.651825,499.611908 466.776489,507.378296 462.056793,514.522888 
	C460.773834,516.465027 459.736938,518.597168 458.274261,520.386353 
	C456.149078,522.985962 453.653168,525.703857 449.923767,524.797791 
	C446.529938,523.973267 446.074554,520.566650 445.341888,517.217468 
	C439.442841,521.220459 433.744110,525.168945 427.546783,528.276978 
	C418.596588,532.765625 412.845001,529.320068 412.702148,519.394104 
	C412.674194,517.453552 412.698120,515.512207 412.698120,513.271118 
	C408.133514,514.598145 405.346619,517.439514 402.538696,520.234497 
	C398.995850,523.760986 395.583496,527.462036 391.102417,529.839539 
	C387.851868,531.564270 384.084167,533.747009 380.858704,531.016479 
	C377.731720,528.369324 375.433105,524.600464 377.262939,519.916199 
	C377.421326,519.510681 377.283936,518.989685 377.283936,518.042786 
	C372.620361,520.425537 368.262878,522.744995 363.825989,524.901062 
	C351.559540,530.861755 343.285706,526.222839 341.836578,512.622131 
	C341.697021,511.312469 341.655762,509.992371 341.524902,508.011810 
	C336.937897,510.631134 333.199127,513.454773 330.042786,517.145935 
	C328.213165,519.285645 326.239014,521.371643 324.030945,523.099854 
	C321.380920,525.173950 318.137268,527.087402 314.842102,525.369263 
	C311.412292,523.580933 310.039551,519.977173 309.913574,516.125732 
	C309.743042,510.911102 311.592499,506.007202 312.696869,500.190796 
	C307.313629,505.007935 304.643097,510.828644 301.677612,516.386963 
	C299.643951,520.198792 298.078613,524.259216 296.272827,528.194275 
	C295.452667,529.981506 294.860718,532.321533 292.334717,532.053284 
	C289.812317,531.785522 289.881317,529.247864 289.213165,527.445435 
	C287.371338,522.476868 289.994843,518.034790 291.348816,512.220825 
	C285.261902,516.726318 279.759888,520.302673 274.851288,524.562805 
	C269.219849,529.450317 262.926331,531.776001 255.634079,531.180115 
	C246.508835,530.434448 241.195541,523.336487 243.305832,514.438843 
	C245.141220,506.700226 246.732285,498.742493 251.914902,492.306427 
	C254.671814,488.882721 257.683319,489.121521 260.028015,492.602081 
	C261.049072,494.117737 261.297974,495.371063 259.923859,497.041412 
	C254.326462,503.845490 252.862549,512.378357 250.760834,520.555237 
	C249.782547,524.361328 253.176468,523.949829 255.341766,523.565186 
	C262.520569,522.289734 268.786713,518.843506 274.752716,514.803345 
	C280.403625,510.976593 285.811157,506.708954 291.765930,503.436218 
	C297.322357,500.382507 298.299561,495.386566 299.154083,490.129730 
	C299.507935,487.953064 298.135101,484.950897 301.167999,484.164612 
	C304.303345,483.351715 305.810913,486.031494 307.157532,488.402252 
	C307.470886,488.953979 307.851318,489.467651 308.347565,490.221710 
	C309.199768,489.690369 309.957245,489.367218 310.522949,488.838776 
	C312.611023,486.888275 315.179993,485.336548 317.674774,487.080963 
	C320.597229,489.124481 323.349457,491.621460 322.856995,496.068939 
	C322.195343,502.044586 319.298004,507.413544 318.103455,513.646423 
	C320.970428,513.557312 322.319916,511.790497 323.897461,510.479980 
	C328.891541,506.331329 333.665924,501.882538 338.910248,498.080933 
	C344.049042,494.355896 350.089111,497.642029 350.262665,504.082306 
	C350.337769,506.868317 349.585663,509.672638 349.258667,512.474365 
	C348.614044,517.997559 350.201691,519.642944 355.684631,518.507202 
	C358.747894,517.872742 361.872772,516.874146 364.593170,515.361877 
	C375.359314,509.376923 386.242310,503.464325 393.747314,492.658234 
M399.020905,511.495209 
	C402.257202,507.977509 408.112732,505.687408 404.932861,499.082642 
	C397.272125,501.152954 388.649597,511.734222 386.845734,521.195496 
	C391.467438,519.059326 394.965179,515.499023 399.020905,511.495209 
z"/>
<path fill="#000000" opacity="1.000000" stroke="none" 
	d="
M232.067413,552.269104 
	C232.445999,561.195740 233.863892,569.455994 237.871475,576.873962 
	C235.211807,578.919678 233.766418,577.640625 232.477890,576.339661 
	C226.562729,570.367554 224.566696,563.080933 223.706818,554.766357 
	C222.820007,546.191345 222.901474,537.655701 222.583542,529.107178 
	C222.104935,516.239441 224.709167,503.617126 226.007751,490.890656 
	C226.104782,489.939697 226.020477,488.970215 226.020477,487.382233 
	C217.656326,487.863770 209.801437,489.672485 202.088058,492.039032 
	C200.372040,492.565491 199.901917,494.856903 199.195404,496.547974 
	C191.113098,515.893677 183.171387,535.288574 177.898254,555.648499 
	C177.149429,558.539856 175.718063,560.448059 172.174438,559.442383 
	C168.645538,558.440857 167.206940,556.390442 168.018097,552.775635 
	C170.175980,543.159424 173.867935,534.091187 177.746490,525.075317 
	C181.882004,515.462158 185.871506,505.786255 190.097977,495.725403 
	C185.697891,495.304932 182.041748,497.017578 178.246826,497.675232 
	C173.825500,498.441467 169.467377,499.582428 165.039124,500.295868 
	C160.525848,501.023041 157.299774,498.695068 155.057785,495.066376 
	C153.665039,492.812134 153.954086,490.184479 157.210281,490.848846 
	C165.422989,492.524536 173.010971,489.717010 180.815735,488.407471 
	C182.779266,488.077972 184.702789,487.117432 186.644241,487.118744 
	C194.003235,487.123718 196.493805,482.546204 199.591400,476.529053 
	C210.369507,455.592468 220.755020,434.311737 236.126266,416.125916 
	C237.597305,414.385498 238.781296,411.154938 241.982788,412.964233 
	C245.364777,414.875488 249.141159,416.475983 248.679398,421.777466 
	C247.853241,431.262360 245.654617,440.463226 243.718094,449.729645 
	C242.052277,457.700775 240.587387,465.717438 238.741638,473.646027 
	C237.709473,478.079803 239.185608,478.763153 243.315277,478.267761 
	C252.898911,477.118256 262.538940,476.431763 272.217804,476.955322 
	C274.074860,477.055725 275.897827,477.173950 277.357788,478.498138 
	C278.517975,479.550476 279.344910,480.815308 278.992279,482.456299 
	C278.557678,484.478729 276.848633,484.320862 275.389679,484.231079 
	C264.074036,483.534790 252.803680,483.946686 241.540771,485.225342 
	C239.018768,485.511658 236.985489,485.764801 236.406525,488.756378 
	C232.530518,508.783661 231.809647,529.059448 231.566330,549.373291 
	C231.556564,550.188904 231.862885,551.008362 232.067413,552.269104 
M221.528870,452.968903 
	C215.682434,462.521545 209.982269,472.148804 205.623932,483.337372 
	C212.578873,482.153046 218.776062,481.042542 224.994537,480.067993 
	C227.254471,479.713806 227.998703,478.151184 228.429779,476.324860 
	C228.848297,474.551788 228.978912,472.712830 229.338654,470.923462 
	C232.045486,457.458923 234.777710,443.999481 237.501999,430.538452 
	C230.754639,436.869537 226.134750,444.470581 221.528870,452.968903 
z"/>
<path fill="#000000" opacity="1.000000" stroke="none" 
	d="
M611.892273,429.678284 
	C606.588013,446.021576 601.021851,475.281372 606.634949,485.353333 
	C609.973816,485.139679 612.444336,483.074890 614.521851,480.782837 
	C621.556213,473.021912 628.008301,464.780121 634.550354,456.595154 
	C645.231873,443.231323 656.308228,430.114594 669.024292,418.537384 
	C671.053101,416.690308 673.006897,416.333832 675.263123,418.032227 
	C678.205627,420.247192 679.784912,422.912750 678.293701,426.661499 
	C675.636047,433.343170 671.813232,439.403564 668.206909,445.581207 
	C653.346252,471.037567 639.598633,497.095886 628.309998,524.322937 
	C619.578674,545.381958 612.345764,567.024658 607.780334,589.443237 
	C606.845398,594.034607 606.852417,598.695984 607.851013,603.333496 
	C608.187378,604.895447 608.873291,606.835571 606.938477,607.793884 
	C605.094666,608.707153 603.742310,607.042725 602.596130,606.033447 
	C600.168030,603.895264 599.946167,600.752625 599.724792,597.768311 
	C599.165283,590.224915 600.201538,582.860046 602.114746,575.547180 
	C605.632812,562.099670 609.676331,548.876831 614.996643,535.979614 
	C617.066650,530.961609 618.972595,525.554565 620.917358,520.529175 
	C622.813232,515.630432 625.812134,510.626617 628.048889,505.585236 
	C630.256409,500.609650 632.807129,495.773865 634.412598,490.475189 
	C635.316467,487.492096 638.613098,485.548462 639.874573,482.353302 
	C642.745361,475.081757 645.660583,467.550934 649.415100,460.992035 
	C653.505188,453.846863 656.234436,445.756622 661.790894,439.421936 
	C662.182556,438.975433 662.316956,438.303253 662.312195,437.550415 
	C654.460815,444.425995 647.877014,452.405670 641.588318,460.637543 
	C635.931824,468.041870 630.388428,475.532593 624.797363,482.986847 
	C622.277405,486.346497 619.456787,489.356537 615.684326,491.377411 
	C610.058044,494.391327 605.402588,493.403137 601.840027,488.108002 
	C597.755798,482.037354 596.932129,474.959656 597.026001,468.003571 
	C597.244446,451.816101 600.283630,435.997711 604.631470,420.428467 
	C604.802795,419.814941 605.099182,419.236298 605.320862,418.682281 
	C612.174377,419.791443 613.876465,422.565125 611.892273,429.678284 
z"/>
<path fill="#000000" opacity="1.000000" stroke="none" 
	d="
M497.887512,511.711426 
	C496.345703,518.472107 496.978760,519.265930 503.649445,518.850708 
	C510.981750,518.394287 517.358459,514.948486 523.862244,512.015686 
	C528.509277,509.920074 533.004578,507.488129 538.046143,504.966919 
	C537.978210,506.173889 538.129272,506.833069 537.904053,507.008087 
	C530.403137,512.837830 522.921631,518.695862 515.291809,524.353638 
	C513.602661,525.606201 511.429749,526.316223 509.379333,526.953613 
	C496.863647,530.844299 488.476257,523.875916 491.019531,510.979462 
	C493.370056,499.060333 500.165924,489.624207 510.598083,483.181061 
	C515.423645,480.200684 519.491211,480.785919 522.325500,484.151428 
	C526.200378,488.752686 526.219788,490.525543 522.158081,495.967285 
	C516.726807,503.243866 510.517242,509.318665 500.562744,509.313599 
	C499.201355,509.312897 498.477264,510.184204 497.887512,511.711426 
z"/>
<path fill="#000000" opacity="1.000000" stroke="none" 
	d="
M269.424133,467.994385 
	C267.081055,471.567505 264.474762,471.598236 261.645325,469.336853 
	C260.106567,468.107025 258.934113,466.421021 260.496460,464.657684 
	C262.541962,462.349030 264.854736,459.133636 268.295837,460.572418 
	C271.140289,461.761719 270.582794,464.988129 269.424133,467.994385 
z"/>
</svg>